<mxfile host="app.diagrams.net" modified="2023-12-24T01:40:06.091Z" agent="Mozilla/5.0 (Windows NT 10.0; Win64; x64) AppleWebKit/537.36 (KHTML, like Gecko) Chrome/120.0.0.0 Safari/537.36" etag="L1-Wc-YAZ9vXlh6McKSG" version="22.1.11" type="github">
  <diagram name="Page-1" id="9dz_OU0nqz03ez0ocMIT">
    <mxGraphModel dx="2284" dy="780" grid="1" gridSize="10" guides="1" tooltips="1" connect="1" arrows="1" fold="1" page="1" pageScale="1" pageWidth="850" pageHeight="1100" math="0" shadow="0">
      <root>
        <mxCell id="0" />
        <mxCell id="1" parent="0" />
        <mxCell id="iRlKEebmr21ZPYE23wWA-92" value="" style="rounded=0;whiteSpace=wrap;html=1;" vertex="1" parent="1">
          <mxGeometry x="-80" y="2599" width="680" height="360" as="geometry" />
        </mxCell>
        <mxCell id="iRlKEebmr21ZPYE23wWA-28" value="" style="rounded=0;whiteSpace=wrap;html=1;" vertex="1" parent="1">
          <mxGeometry x="-80" y="1520" width="800" height="400" as="geometry" />
        </mxCell>
        <mxCell id="YpI6oe4IFo95CnMG9ItT-106" value="" style="rounded=1;whiteSpace=wrap;html=1;" parent="1" vertex="1">
          <mxGeometry x="-200" y="110" width="1170" height="1210" as="geometry" />
        </mxCell>
        <mxCell id="YpI6oe4IFo95CnMG9ItT-58" style="edgeStyle=orthogonalEdgeStyle;rounded=0;orthogonalLoop=1;jettySize=auto;html=1;exitX=0.75;exitY=1;exitDx=0;exitDy=0;entryX=0.5;entryY=0;entryDx=0;entryDy=0;" parent="1" source="YpI6oe4IFo95CnMG9ItT-54" target="YpI6oe4IFo95CnMG9ItT-10" edge="1">
          <mxGeometry relative="1" as="geometry" />
        </mxCell>
        <mxCell id="YpI6oe4IFo95CnMG9ItT-59" style="edgeStyle=orthogonalEdgeStyle;rounded=0;orthogonalLoop=1;jettySize=auto;html=1;exitX=0.25;exitY=1;exitDx=0;exitDy=0;entryX=0.5;entryY=0;entryDx=0;entryDy=0;" parent="1" source="YpI6oe4IFo95CnMG9ItT-54" target="YpI6oe4IFo95CnMG9ItT-7" edge="1">
          <mxGeometry relative="1" as="geometry" />
        </mxCell>
        <mxCell id="YpI6oe4IFo95CnMG9ItT-54" value="" style="rounded=1;whiteSpace=wrap;html=1;fillColor=#e1d5e7;strokeColor=#9673a6;" parent="1" vertex="1">
          <mxGeometry x="353" y="360" width="185" height="90" as="geometry" />
        </mxCell>
        <mxCell id="YpI6oe4IFo95CnMG9ItT-99" style="edgeStyle=orthogonalEdgeStyle;rounded=0;orthogonalLoop=1;jettySize=auto;html=1;entryX=0;entryY=0.5;entryDx=0;entryDy=0;entryPerimeter=0;" parent="1" source="YpI6oe4IFo95CnMG9ItT-44" target="YpI6oe4IFo95CnMG9ItT-45" edge="1">
          <mxGeometry relative="1" as="geometry" />
        </mxCell>
        <mxCell id="YpI6oe4IFo95CnMG9ItT-44" value="" style="whiteSpace=wrap;html=1;aspect=fixed;strokeWidth=1;dashed=1;fillColor=#76608a;fontColor=#ffffff;strokeColor=#432D57;" parent="1" vertex="1">
          <mxGeometry x="287.5" y="1050" width="200" height="200" as="geometry" />
        </mxCell>
        <mxCell id="YpI6oe4IFo95CnMG9ItT-87" style="edgeStyle=orthogonalEdgeStyle;rounded=0;orthogonalLoop=1;jettySize=auto;html=1;entryX=0.5;entryY=1;entryDx=0;entryDy=0;" parent="1" source="YpI6oe4IFo95CnMG9ItT-33" target="YpI6oe4IFo95CnMG9ItT-30" edge="1">
          <mxGeometry relative="1" as="geometry" />
        </mxCell>
        <mxCell id="YpI6oe4IFo95CnMG9ItT-33" value="" style="rounded=0;whiteSpace=wrap;html=1;dashed=1;fillColor=#dae8fc;strokeColor=#6c8ebf;" parent="1" vertex="1">
          <mxGeometry x="670" y="550" width="220" height="60" as="geometry" />
        </mxCell>
        <mxCell id="YpI6oe4IFo95CnMG9ItT-26" value="" style="rounded=0;whiteSpace=wrap;html=1;dashed=1;fillColor=#ffe6cc;strokeColor=#d79b00;" parent="1" vertex="1">
          <mxGeometry x="282" y="836" width="210" height="90" as="geometry" />
        </mxCell>
        <mxCell id="YpI6oe4IFo95CnMG9ItT-20" value="" style="whiteSpace=wrap;html=1;aspect=fixed;strokeWidth=1;dashed=1;fillColor=#f0a30a;fontColor=#000000;strokeColor=#BD7000;" parent="1" vertex="1">
          <mxGeometry x="-150" y="410" width="160" height="160" as="geometry" />
        </mxCell>
        <mxCell id="YpI6oe4IFo95CnMG9ItT-51" style="edgeStyle=orthogonalEdgeStyle;rounded=0;orthogonalLoop=1;jettySize=auto;html=1;entryX=0.5;entryY=0;entryDx=0;entryDy=0;" parent="1" source="YpI6oe4IFo95CnMG9ItT-1" target="YpI6oe4IFo95CnMG9ItT-4" edge="1">
          <mxGeometry relative="1" as="geometry" />
        </mxCell>
        <mxCell id="YpI6oe4IFo95CnMG9ItT-64" style="edgeStyle=orthogonalEdgeStyle;rounded=0;orthogonalLoop=1;jettySize=auto;html=1;entryX=1;entryY=0.5;entryDx=0;entryDy=0;" parent="1" target="YpI6oe4IFo95CnMG9ItT-3" edge="1">
          <mxGeometry relative="1" as="geometry">
            <mxPoint x="400" y="171" as="sourcePoint" />
          </mxGeometry>
        </mxCell>
        <mxCell id="YpI6oe4IFo95CnMG9ItT-1" value="" style="sketch=0;outlineConnect=0;fontColor=#232F3E;gradientColor=none;fillColor=#232F3D;strokeColor=none;dashed=0;verticalLabelPosition=bottom;verticalAlign=top;align=center;html=1;fontSize=12;fontStyle=0;aspect=fixed;pointerEvents=1;shape=mxgraph.aws4.client;" parent="1" vertex="1">
          <mxGeometry x="410" y="153.38" width="54" height="52.62" as="geometry" />
        </mxCell>
        <mxCell id="YpI6oe4IFo95CnMG9ItT-2" value="Client" style="text;html=1;strokeColor=none;fillColor=none;align=center;verticalAlign=middle;whiteSpace=wrap;rounded=0;" parent="1" vertex="1">
          <mxGeometry x="407" y="123.38" width="60" height="30" as="geometry" />
        </mxCell>
        <mxCell id="YpI6oe4IFo95CnMG9ItT-3" value="DNS" style="rounded=0;whiteSpace=wrap;html=1;fillColor=#dae8fc;strokeColor=#6c8ebf;" parent="1" vertex="1">
          <mxGeometry x="20" y="156" width="70" height="30" as="geometry" />
        </mxCell>
        <mxCell id="YpI6oe4IFo95CnMG9ItT-55" style="edgeStyle=orthogonalEdgeStyle;rounded=0;orthogonalLoop=1;jettySize=auto;html=1;exitX=0.5;exitY=1;exitDx=0;exitDy=0;entryX=0.454;entryY=0.022;entryDx=0;entryDy=0;entryPerimeter=0;" parent="1" source="YpI6oe4IFo95CnMG9ItT-4" target="YpI6oe4IFo95CnMG9ItT-54" edge="1">
          <mxGeometry relative="1" as="geometry" />
        </mxCell>
        <mxCell id="YpI6oe4IFo95CnMG9ItT-4" value="Load Balancer" style="rhombus;whiteSpace=wrap;html=1;" parent="1" vertex="1">
          <mxGeometry x="404" y="260" width="67" height="70" as="geometry" />
        </mxCell>
        <mxCell id="YpI6oe4IFo95CnMG9ItT-5" value="API &lt;br&gt;Gateway 1" style="shape=hexagon;perimeter=hexagonPerimeter2;whiteSpace=wrap;html=1;fixedSize=1;fillColor=#e1d5e7;strokeColor=#9673a6;" parent="1" vertex="1">
          <mxGeometry x="360" y="380" width="80" height="50" as="geometry" />
        </mxCell>
        <mxCell id="YpI6oe4IFo95CnMG9ItT-6" value="API &lt;br&gt;Gateway 1" style="shape=hexagon;perimeter=hexagonPerimeter2;whiteSpace=wrap;html=1;fixedSize=1;fillColor=#e1d5e7;strokeColor=#9673a6;" parent="1" vertex="1">
          <mxGeometry x="450" y="380" width="80" height="50" as="geometry" />
        </mxCell>
        <mxCell id="YpI6oe4IFo95CnMG9ItT-60" style="edgeStyle=orthogonalEdgeStyle;rounded=0;orthogonalLoop=1;jettySize=auto;html=1;entryX=0.5;entryY=0;entryDx=0;entryDy=0;entryPerimeter=0;" parent="1" source="YpI6oe4IFo95CnMG9ItT-7" target="YpI6oe4IFo95CnMG9ItT-14" edge="1">
          <mxGeometry relative="1" as="geometry" />
        </mxCell>
        <mxCell id="YpI6oe4IFo95CnMG9ItT-7" value="" style="rounded=0;whiteSpace=wrap;html=1;fillColor=#1ba1e2;fontColor=#ffffff;strokeColor=#006EAF;" parent="1" vertex="1">
          <mxGeometry x="321" y="510" width="93" height="40" as="geometry" />
        </mxCell>
        <mxCell id="YpI6oe4IFo95CnMG9ItT-8" value="" style="rounded=0;whiteSpace=wrap;html=1;fillColor=#1ba1e2;fontColor=#ffffff;strokeColor=#006EAF;" parent="1" vertex="1">
          <mxGeometry x="331" y="520" width="93" height="40" as="geometry" />
        </mxCell>
        <mxCell id="YpI6oe4IFo95CnMG9ItT-9" value="Metadata Server" style="rounded=0;whiteSpace=wrap;html=1;fillColor=#1ba1e2;fontColor=#ffffff;strokeColor=#006EAF;" parent="1" vertex="1">
          <mxGeometry x="341" y="530" width="93" height="40" as="geometry" />
        </mxCell>
        <mxCell id="YpI6oe4IFo95CnMG9ItT-10" value="" style="rounded=0;whiteSpace=wrap;html=1;fillColor=#d80073;fontColor=#ffffff;strokeColor=#A50040;" parent="1" vertex="1">
          <mxGeometry x="479" y="513" width="93" height="40" as="geometry" />
        </mxCell>
        <mxCell id="YpI6oe4IFo95CnMG9ItT-11" value="" style="rounded=0;whiteSpace=wrap;html=1;fillColor=#d80073;fontColor=#ffffff;strokeColor=#A50040;" parent="1" vertex="1">
          <mxGeometry x="489" y="523" width="93" height="40" as="geometry" />
        </mxCell>
        <mxCell id="YpI6oe4IFo95CnMG9ItT-84" style="edgeStyle=orthogonalEdgeStyle;rounded=0;orthogonalLoop=1;jettySize=auto;html=1;exitX=0.5;exitY=1;exitDx=0;exitDy=0;" parent="1" source="YpI6oe4IFo95CnMG9ItT-12" target="YpI6oe4IFo95CnMG9ItT-34" edge="1">
          <mxGeometry relative="1" as="geometry" />
        </mxCell>
        <mxCell id="YpI6oe4IFo95CnMG9ItT-12" value="Block Server" style="rounded=0;whiteSpace=wrap;html=1;fillColor=#d80073;fontColor=#ffffff;strokeColor=#A50040;" parent="1" vertex="1">
          <mxGeometry x="499" y="533" width="93" height="40" as="geometry" />
        </mxCell>
        <mxCell id="YpI6oe4IFo95CnMG9ItT-61" style="edgeStyle=orthogonalEdgeStyle;rounded=0;orthogonalLoop=1;jettySize=auto;html=1;" parent="1" source="YpI6oe4IFo95CnMG9ItT-14" target="YpI6oe4IFo95CnMG9ItT-15" edge="1">
          <mxGeometry relative="1" as="geometry" />
        </mxCell>
        <mxCell id="YpI6oe4IFo95CnMG9ItT-14" value="Notification Queue" style="shape=cylinder3;whiteSpace=wrap;html=1;boundedLbl=1;backgroundOutline=1;size=15;direction=south;fillColor=#d5e8d4;strokeColor=#82b366;" parent="1" vertex="1">
          <mxGeometry x="97" y="510" width="120" height="40" as="geometry" />
        </mxCell>
        <mxCell id="YpI6oe4IFo95CnMG9ItT-62" style="edgeStyle=orthogonalEdgeStyle;rounded=0;orthogonalLoop=1;jettySize=auto;html=1;" parent="1" source="YpI6oe4IFo95CnMG9ItT-15" target="YpI6oe4IFo95CnMG9ItT-1" edge="1">
          <mxGeometry relative="1" as="geometry">
            <Array as="points">
              <mxPoint x="158" y="260" />
              <mxPoint x="310" y="260" />
              <mxPoint x="310" y="180" />
            </Array>
          </mxGeometry>
        </mxCell>
        <mxCell id="YpI6oe4IFo95CnMG9ItT-15" value="Notification Service" style="rounded=0;whiteSpace=wrap;html=1;fillColor=#dae8fc;strokeColor=#6c8ebf;" parent="1" vertex="1">
          <mxGeometry x="111" y="370" width="93" height="40" as="geometry" />
        </mxCell>
        <mxCell id="YpI6oe4IFo95CnMG9ItT-16" value="&lt;br&gt;Search Results Aggregators" style="whiteSpace=wrap;html=1;aspect=fixed;fillColor=#ffe6cc;strokeColor=#d79b00;" parent="1" vertex="1">
          <mxGeometry x="-117.75" y="620" width="70" height="70" as="geometry" />
        </mxCell>
        <mxCell id="YpI6oe4IFo95CnMG9ItT-17" value="Storage" style="rounded=1;whiteSpace=wrap;html=1;fillColor=#f0a30a;fontColor=#000000;strokeColor=#BD7000;" parent="1" vertex="1">
          <mxGeometry x="-113.75" y="520" width="85" height="30" as="geometry" />
        </mxCell>
        <mxCell id="YpI6oe4IFo95CnMG9ItT-18" value="Cache" style="rounded=1;whiteSpace=wrap;html=1;fillColor=#f0a30a;fontColor=#000000;strokeColor=#BD7000;" parent="1" vertex="1">
          <mxGeometry x="-113.75" y="480" width="85" height="30" as="geometry" />
        </mxCell>
        <mxCell id="YpI6oe4IFo95CnMG9ItT-19" value="Search Index&lt;br&gt;(ElasticSearch, Solr)" style="rounded=1;whiteSpace=wrap;html=1;fillColor=#f0a30a;fontColor=#000000;strokeColor=#BD7000;" parent="1" vertex="1">
          <mxGeometry x="-130" y="440" width="117.5" height="30" as="geometry" />
        </mxCell>
        <mxCell id="YpI6oe4IFo95CnMG9ItT-75" style="edgeStyle=orthogonalEdgeStyle;rounded=0;orthogonalLoop=1;jettySize=auto;html=1;exitX=1;exitY=0.5;exitDx=0;exitDy=0;exitPerimeter=0;entryX=0.5;entryY=0;entryDx=0;entryDy=0;" parent="1" source="YpI6oe4IFo95CnMG9ItT-21" target="YpI6oe4IFo95CnMG9ItT-74" edge="1">
          <mxGeometry relative="1" as="geometry" />
        </mxCell>
        <mxCell id="YpI6oe4IFo95CnMG9ItT-21" value="Feed Generation Queue" style="shape=cylinder3;whiteSpace=wrap;html=1;boundedLbl=1;backgroundOutline=1;size=15;direction=south;fillColor=#d5e8d4;strokeColor=#82b366;" parent="1" vertex="1">
          <mxGeometry x="-130" y="761" width="120" height="40" as="geometry" />
        </mxCell>
        <mxCell id="YpI6oe4IFo95CnMG9ItT-22" value="Metadata&lt;br&gt;DB" style="shape=cylinder3;whiteSpace=wrap;html=1;boundedLbl=1;backgroundOutline=1;size=15;fillColor=#ffe6cc;strokeColor=#d79b00;" parent="1" vertex="1">
          <mxGeometry x="302" y="846" width="50" height="70" as="geometry" />
        </mxCell>
        <mxCell id="YpI6oe4IFo95CnMG9ItT-23" value="Metadata&lt;br&gt;DB" style="shape=cylinder3;whiteSpace=wrap;html=1;boundedLbl=1;backgroundOutline=1;size=15;fillColor=#ffe6cc;strokeColor=#d79b00;" parent="1" vertex="1">
          <mxGeometry x="362" y="846" width="50" height="70" as="geometry" />
        </mxCell>
        <mxCell id="YpI6oe4IFo95CnMG9ItT-24" value="Metadata&lt;br&gt;DB" style="shape=cylinder3;whiteSpace=wrap;html=1;boundedLbl=1;backgroundOutline=1;size=15;fillColor=#ffe6cc;strokeColor=#d79b00;" parent="1" vertex="1">
          <mxGeometry x="422" y="846" width="50" height="70" as="geometry" />
        </mxCell>
        <mxCell id="YpI6oe4IFo95CnMG9ItT-27" value="Shared Manager" style="rounded=0;whiteSpace=wrap;html=1;fillColor=#e3c800;fontColor=#000000;strokeColor=#B09500;" parent="1" vertex="1">
          <mxGeometry x="80" y="764" width="93" height="40" as="geometry" />
        </mxCell>
        <mxCell id="YpI6oe4IFo95CnMG9ItT-28" value="Directory based partitioning" style="rounded=0;whiteSpace=wrap;html=1;fillColor=#e3c800;fontColor=#000000;strokeColor=#B09500;" parent="1" vertex="1">
          <mxGeometry x="209.25" y="652.75" width="73" height="60" as="geometry" />
        </mxCell>
        <mxCell id="YpI6oe4IFo95CnMG9ItT-80" style="edgeStyle=orthogonalEdgeStyle;rounded=0;orthogonalLoop=1;jettySize=auto;html=1;entryX=1;entryY=0.5;entryDx=0;entryDy=0;" parent="1" source="YpI6oe4IFo95CnMG9ItT-29" target="YpI6oe4IFo95CnMG9ItT-28" edge="1">
          <mxGeometry relative="1" as="geometry" />
        </mxCell>
        <mxCell id="YpI6oe4IFo95CnMG9ItT-29" value="Redis/Memcached" style="sketch=0;outlineConnect=0;fontColor=#232F3E;gradientColor=none;fillColor=#2E27AD;strokeColor=none;dashed=0;verticalLabelPosition=bottom;verticalAlign=top;align=center;html=1;fontSize=12;fontStyle=0;aspect=fixed;pointerEvents=1;shape=mxgraph.aws4.cache_node;" parent="1" vertex="1">
          <mxGeometry x="364.5" y="660" width="45.5" height="45.5" as="geometry" />
        </mxCell>
        <mxCell id="YpI6oe4IFo95CnMG9ItT-52" style="edgeStyle=orthogonalEdgeStyle;rounded=0;orthogonalLoop=1;jettySize=auto;html=1;" parent="1" source="YpI6oe4IFo95CnMG9ItT-30" target="YpI6oe4IFo95CnMG9ItT-1" edge="1">
          <mxGeometry relative="1" as="geometry">
            <Array as="points">
              <mxPoint x="780" y="170" />
            </Array>
          </mxGeometry>
        </mxCell>
        <mxCell id="YpI6oe4IFo95CnMG9ItT-30" value="CDN" style="rounded=1;whiteSpace=wrap;html=1;fillColor=#d5e8d4;strokeColor=#82b366;" parent="1" vertex="1">
          <mxGeometry x="730" y="380" width="100" height="40" as="geometry" />
        </mxCell>
        <mxCell id="YpI6oe4IFo95CnMG9ItT-31" value="Image/Thumbnail storage" style="rounded=0;whiteSpace=wrap;html=1;fillColor=#dae8fc;strokeColor=#6c8ebf;" parent="1" vertex="1">
          <mxGeometry x="680" y="560" width="100" height="40" as="geometry" />
        </mxCell>
        <mxCell id="YpI6oe4IFo95CnMG9ItT-32" value="Video&lt;br&gt;storage" style="rounded=0;whiteSpace=wrap;html=1;fillColor=#dae8fc;strokeColor=#6c8ebf;" parent="1" vertex="1">
          <mxGeometry x="786" y="560" width="93" height="40" as="geometry" />
        </mxCell>
        <mxCell id="YpI6oe4IFo95CnMG9ItT-90" style="edgeStyle=orthogonalEdgeStyle;rounded=0;orthogonalLoop=1;jettySize=auto;html=1;" parent="1" source="YpI6oe4IFo95CnMG9ItT-34" target="YpI6oe4IFo95CnMG9ItT-35" edge="1">
          <mxGeometry relative="1" as="geometry" />
        </mxCell>
        <mxCell id="YpI6oe4IFo95CnMG9ItT-34" value="Video Processing Queue" style="shape=cylinder3;whiteSpace=wrap;html=1;boundedLbl=1;backgroundOutline=1;size=15;direction=south;fillColor=#d5e8d4;strokeColor=#82b366;" parent="1" vertex="1">
          <mxGeometry x="486" y="720" width="120" height="40" as="geometry" />
        </mxCell>
        <mxCell id="YpI6oe4IFo95CnMG9ItT-95" style="edgeStyle=orthogonalEdgeStyle;rounded=0;orthogonalLoop=1;jettySize=auto;html=1;entryX=1;entryY=0.5;entryDx=0;entryDy=0;" parent="1" source="YpI6oe4IFo95CnMG9ItT-35" target="YpI6oe4IFo95CnMG9ItT-33" edge="1">
          <mxGeometry relative="1" as="geometry">
            <Array as="points">
              <mxPoint x="910" y="740" />
              <mxPoint x="910" y="580" />
            </Array>
          </mxGeometry>
        </mxCell>
        <mxCell id="YpI6oe4IFo95CnMG9ItT-35" value="Video Processing Service" style="rounded=0;whiteSpace=wrap;html=1;" parent="1" vertex="1">
          <mxGeometry x="740" y="720" width="93" height="40" as="geometry" />
        </mxCell>
        <mxCell id="YpI6oe4IFo95CnMG9ItT-36" value="Worker" style="whiteSpace=wrap;html=1;aspect=fixed;" parent="1" vertex="1">
          <mxGeometry x="701" y="801" width="50" height="50" as="geometry" />
        </mxCell>
        <mxCell id="YpI6oe4IFo95CnMG9ItT-37" value="Worker" style="whiteSpace=wrap;html=1;aspect=fixed;" parent="1" vertex="1">
          <mxGeometry x="761" y="801" width="50" height="50" as="geometry" />
        </mxCell>
        <mxCell id="YpI6oe4IFo95CnMG9ItT-38" value="Worker" style="whiteSpace=wrap;html=1;aspect=fixed;fillColor=#dae8fc;strokeColor=#6c8ebf;" parent="1" vertex="1">
          <mxGeometry x="821" y="801" width="50" height="50" as="geometry" />
        </mxCell>
        <mxCell id="YpI6oe4IFo95CnMG9ItT-39" value="Data Processing Systems&lt;br&gt;(Hadoop/MR, Spark)" style="rounded=0;whiteSpace=wrap;html=1;fillColor=#76608a;fontColor=#ffffff;strokeColor=#432D57;" parent="1" vertex="1">
          <mxGeometry x="314.25" y="1060" width="149.25" height="60" as="geometry" />
        </mxCell>
        <mxCell id="YpI6oe4IFo95CnMG9ItT-40" value="Distributed Scheduler" style="rounded=0;whiteSpace=wrap;html=1;fillColor=#76608a;fontColor=#ffffff;strokeColor=#432D57;" parent="1" vertex="1">
          <mxGeometry x="339.25" y="1130" width="99.25" height="50" as="geometry" />
        </mxCell>
        <mxCell id="YpI6oe4IFo95CnMG9ItT-41" value="Worker" style="whiteSpace=wrap;html=1;aspect=fixed;fillColor=#76608a;fontColor=#ffffff;strokeColor=#432D57;" parent="1" vertex="1">
          <mxGeometry x="304.25" y="1190" width="50" height="50" as="geometry" />
        </mxCell>
        <mxCell id="YpI6oe4IFo95CnMG9ItT-42" value="Worker" style="whiteSpace=wrap;html=1;aspect=fixed;fillColor=#76608a;fontColor=#ffffff;strokeColor=#432D57;" parent="1" vertex="1">
          <mxGeometry x="363.5" y="1190" width="50" height="50" as="geometry" />
        </mxCell>
        <mxCell id="YpI6oe4IFo95CnMG9ItT-43" value="Worker" style="whiteSpace=wrap;html=1;aspect=fixed;fillColor=#76608a;fontColor=#ffffff;strokeColor=#432D57;" parent="1" vertex="1">
          <mxGeometry x="423.5" y="1190" width="50" height="50" as="geometry" />
        </mxCell>
        <mxCell id="YpI6oe4IFo95CnMG9ItT-101" style="edgeStyle=orthogonalEdgeStyle;rounded=0;orthogonalLoop=1;jettySize=auto;html=1;entryX=0.5;entryY=1;entryDx=0;entryDy=0;" parent="1" source="YpI6oe4IFo95CnMG9ItT-45" target="YpI6oe4IFo95CnMG9ItT-46" edge="1">
          <mxGeometry relative="1" as="geometry" />
        </mxCell>
        <mxCell id="YpI6oe4IFo95CnMG9ItT-45" value="Database" style="shape=cylinder3;whiteSpace=wrap;html=1;boundedLbl=1;backgroundOutline=1;size=15;fillColor=#ffe6cc;strokeColor=#d79b00;" parent="1" vertex="1">
          <mxGeometry x="756.5" y="1115" width="60" height="70" as="geometry" />
        </mxCell>
        <mxCell id="YpI6oe4IFo95CnMG9ItT-46" value="&lt;br&gt;Reports Viewing &amp;amp; Data analysis" style="whiteSpace=wrap;html=1;aspect=fixed;fillColor=#76608a;fontColor=#ffffff;strokeColor=#432D57;" parent="1" vertex="1">
          <mxGeometry x="749" y="957.5" width="75" height="75" as="geometry" />
        </mxCell>
        <mxCell id="YpI6oe4IFo95CnMG9ItT-47" value="Coordination Service (zookeeper, etcd, consul ...)" style="rounded=0;whiteSpace=wrap;html=1;fillColor=#6a00ff;fontColor=#ffffff;strokeColor=#3700CC;" parent="1" vertex="1">
          <mxGeometry x="-120" y="1039" width="120" height="60" as="geometry" />
        </mxCell>
        <mxCell id="YpI6oe4IFo95CnMG9ItT-48" value="Distributed Logging" style="rounded=0;whiteSpace=wrap;html=1;fillColor=#0050ef;fontColor=#ffffff;strokeColor=#001DBC;" parent="1" vertex="1">
          <mxGeometry x="-120" y="1109" width="120" height="60" as="geometry" />
        </mxCell>
        <mxCell id="YpI6oe4IFo95CnMG9ItT-49" value="Distributed Tracing" style="rounded=0;whiteSpace=wrap;html=1;fillColor=#a20025;fontColor=#ffffff;strokeColor=#6F0000;" parent="1" vertex="1">
          <mxGeometry x="-120" y="1179" width="120" height="60" as="geometry" />
        </mxCell>
        <mxCell id="YpI6oe4IFo95CnMG9ItT-50" value="Data Warehouse" style="text;html=1;strokeColor=none;fillColor=none;align=center;verticalAlign=middle;whiteSpace=wrap;rounded=0;" parent="1" vertex="1">
          <mxGeometry x="323.5" y="1250" width="130" height="30" as="geometry" />
        </mxCell>
        <mxCell id="YpI6oe4IFo95CnMG9ItT-68" value="Search Query" style="text;html=1;strokeColor=none;fillColor=none;align=center;verticalAlign=middle;whiteSpace=wrap;rounded=0;" parent="1" vertex="1">
          <mxGeometry x="43" y="580" width="90" height="30" as="geometry" />
        </mxCell>
        <mxCell id="YpI6oe4IFo95CnMG9ItT-70" value="" style="endArrow=classic;startArrow=classic;html=1;rounded=0;entryX=0;entryY=0.75;entryDx=0;entryDy=0;exitX=1;exitY=0.5;exitDx=0;exitDy=0;" parent="1" source="YpI6oe4IFo95CnMG9ItT-16" target="YpI6oe4IFo95CnMG9ItT-7" edge="1">
          <mxGeometry width="50" height="50" relative="1" as="geometry">
            <mxPoint x="400" y="740" as="sourcePoint" />
            <mxPoint x="450" y="690" as="targetPoint" />
          </mxGeometry>
        </mxCell>
        <mxCell id="YpI6oe4IFo95CnMG9ItT-72" value="" style="endArrow=classic;startArrow=classic;html=1;rounded=0;entryX=0.425;entryY=1;entryDx=0;entryDy=0;entryPerimeter=0;" parent="1" source="YpI6oe4IFo95CnMG9ItT-16" target="YpI6oe4IFo95CnMG9ItT-20" edge="1">
          <mxGeometry width="50" height="50" relative="1" as="geometry">
            <mxPoint x="400" y="740" as="sourcePoint" />
            <mxPoint x="450" y="690" as="targetPoint" />
          </mxGeometry>
        </mxCell>
        <mxCell id="YpI6oe4IFo95CnMG9ItT-73" value="" style="endArrow=classic;html=1;rounded=0;entryX=0;entryY=0;entryDx=0;entryDy=37.5;entryPerimeter=0;exitX=0;exitY=1;exitDx=0;exitDy=0;" parent="1" source="YpI6oe4IFo95CnMG9ItT-8" target="YpI6oe4IFo95CnMG9ItT-21" edge="1">
          <mxGeometry width="50" height="50" relative="1" as="geometry">
            <mxPoint x="400" y="840" as="sourcePoint" />
            <mxPoint x="450" y="790" as="targetPoint" />
          </mxGeometry>
        </mxCell>
        <mxCell id="YpI6oe4IFo95CnMG9ItT-76" style="edgeStyle=orthogonalEdgeStyle;rounded=0;orthogonalLoop=1;jettySize=auto;html=1;entryX=-0.019;entryY=0.578;entryDx=0;entryDy=0;entryPerimeter=0;" parent="1" source="YpI6oe4IFo95CnMG9ItT-74" target="YpI6oe4IFo95CnMG9ItT-26" edge="1">
          <mxGeometry relative="1" as="geometry" />
        </mxCell>
        <mxCell id="YpI6oe4IFo95CnMG9ItT-74" value="Feed Generation Service" style="rounded=0;whiteSpace=wrap;html=1;fillColor=#dae8fc;strokeColor=#6c8ebf;" parent="1" vertex="1">
          <mxGeometry x="-116.75" y="868" width="93" height="40" as="geometry" />
        </mxCell>
        <mxCell id="YpI6oe4IFo95CnMG9ItT-77" value="" style="endArrow=classic;startArrow=classic;html=1;rounded=0;entryX=0.5;entryY=1;entryDx=0;entryDy=0;" parent="1" source="YpI6oe4IFo95CnMG9ItT-29" target="YpI6oe4IFo95CnMG9ItT-9" edge="1">
          <mxGeometry width="50" height="50" relative="1" as="geometry">
            <mxPoint x="400" y="850" as="sourcePoint" />
            <mxPoint x="450" y="800" as="targetPoint" />
          </mxGeometry>
        </mxCell>
        <mxCell id="YpI6oe4IFo95CnMG9ItT-78" value="" style="endArrow=classic;startArrow=classic;html=1;rounded=0;exitX=0.5;exitY=0;exitDx=0;exitDy=0;" parent="1" source="YpI6oe4IFo95CnMG9ItT-26" target="YpI6oe4IFo95CnMG9ItT-29" edge="1">
          <mxGeometry width="50" height="50" relative="1" as="geometry">
            <mxPoint x="387" y="840" as="sourcePoint" />
            <mxPoint x="450" y="800" as="targetPoint" />
          </mxGeometry>
        </mxCell>
        <mxCell id="YpI6oe4IFo95CnMG9ItT-79" value="" style="endArrow=classic;html=1;rounded=0;exitX=1;exitY=0.5;exitDx=0;exitDy=0;entryX=0;entryY=0.25;entryDx=0;entryDy=0;" parent="1" source="YpI6oe4IFo95CnMG9ItT-27" target="YpI6oe4IFo95CnMG9ItT-26" edge="1">
          <mxGeometry width="50" height="50" relative="1" as="geometry">
            <mxPoint x="400" y="850" as="sourcePoint" />
            <mxPoint x="450" y="800" as="targetPoint" />
          </mxGeometry>
        </mxCell>
        <mxCell id="YpI6oe4IFo95CnMG9ItT-81" value="" style="endArrow=classic;html=1;rounded=0;entryX=0;entryY=0.5;entryDx=0;entryDy=0;exitX=0.5;exitY=0;exitDx=0;exitDy=0;" parent="1" source="YpI6oe4IFo95CnMG9ItT-27" target="YpI6oe4IFo95CnMG9ItT-28" edge="1">
          <mxGeometry width="50" height="50" relative="1" as="geometry">
            <mxPoint x="400" y="850" as="sourcePoint" />
            <mxPoint x="450" y="800" as="targetPoint" />
          </mxGeometry>
        </mxCell>
        <mxCell id="YpI6oe4IFo95CnMG9ItT-82" value="Read/write metadata" style="text;html=1;strokeColor=none;fillColor=none;align=center;verticalAlign=middle;whiteSpace=wrap;rounded=0;" parent="1" vertex="1">
          <mxGeometry x="390" y="600" width="60" height="30" as="geometry" />
        </mxCell>
        <mxCell id="YpI6oe4IFo95CnMG9ItT-83" value="Replication and Partitioning" style="text;html=1;strokeColor=none;fillColor=none;align=center;verticalAlign=middle;whiteSpace=wrap;rounded=0;" parent="1" vertex="1">
          <mxGeometry x="390" y="769" width="90" height="30" as="geometry" />
        </mxCell>
        <mxCell id="YpI6oe4IFo95CnMG9ItT-85" value="" style="endArrow=classic;html=1;rounded=0;entryX=0;entryY=0.5;entryDx=0;entryDy=0;exitX=1;exitY=0.5;exitDx=0;exitDy=0;" parent="1" source="YpI6oe4IFo95CnMG9ItT-12" target="YpI6oe4IFo95CnMG9ItT-33" edge="1">
          <mxGeometry width="50" height="50" relative="1" as="geometry">
            <mxPoint x="400" y="530" as="sourcePoint" />
            <mxPoint x="450" y="480" as="targetPoint" />
          </mxGeometry>
        </mxCell>
        <mxCell id="YpI6oe4IFo95CnMG9ItT-94" style="edgeStyle=orthogonalEdgeStyle;rounded=0;orthogonalLoop=1;jettySize=auto;html=1;entryX=0.5;entryY=0;entryDx=0;entryDy=0;" parent="1" source="YpI6oe4IFo95CnMG9ItT-86" target="YpI6oe4IFo95CnMG9ItT-35" edge="1">
          <mxGeometry relative="1" as="geometry" />
        </mxCell>
        <mxCell id="YpI6oe4IFo95CnMG9ItT-86" value="Distributed File Storage" style="text;html=1;strokeColor=none;fillColor=none;align=center;verticalAlign=middle;whiteSpace=wrap;rounded=0;" parent="1" vertex="1">
          <mxGeometry x="720" y="610" width="133.5" height="30" as="geometry" />
        </mxCell>
        <mxCell id="YpI6oe4IFo95CnMG9ItT-88" value="Static Content" style="text;html=1;strokeColor=none;fillColor=none;align=center;verticalAlign=middle;whiteSpace=wrap;rounded=0;" parent="1" vertex="1">
          <mxGeometry x="690" y="421" width="86" height="30" as="geometry" />
        </mxCell>
        <mxCell id="YpI6oe4IFo95CnMG9ItT-89" value="Video Processing Task" style="text;html=1;strokeColor=none;fillColor=none;align=center;verticalAlign=middle;whiteSpace=wrap;rounded=0;" parent="1" vertex="1">
          <mxGeometry x="550" y="630" width="90" height="30" as="geometry" />
        </mxCell>
        <mxCell id="YpI6oe4IFo95CnMG9ItT-91" value="" style="endArrow=classic;html=1;rounded=0;entryX=0.5;entryY=0;entryDx=0;entryDy=0;exitX=0.25;exitY=1;exitDx=0;exitDy=0;" parent="1" source="YpI6oe4IFo95CnMG9ItT-35" target="YpI6oe4IFo95CnMG9ItT-36" edge="1">
          <mxGeometry width="50" height="50" relative="1" as="geometry">
            <mxPoint x="400" y="900" as="sourcePoint" />
            <mxPoint x="450" y="850" as="targetPoint" />
          </mxGeometry>
        </mxCell>
        <mxCell id="YpI6oe4IFo95CnMG9ItT-92" value="" style="endArrow=classic;html=1;rounded=0;entryX=0.5;entryY=0;entryDx=0;entryDy=0;exitX=0.5;exitY=1;exitDx=0;exitDy=0;" parent="1" source="YpI6oe4IFo95CnMG9ItT-35" target="YpI6oe4IFo95CnMG9ItT-37" edge="1">
          <mxGeometry width="50" height="50" relative="1" as="geometry">
            <mxPoint x="773" y="770" as="sourcePoint" />
            <mxPoint x="730" y="866" as="targetPoint" />
          </mxGeometry>
        </mxCell>
        <mxCell id="YpI6oe4IFo95CnMG9ItT-93" value="" style="endArrow=classic;html=1;rounded=0;entryX=0.5;entryY=0;entryDx=0;entryDy=0;exitX=0.75;exitY=1;exitDx=0;exitDy=0;" parent="1" source="YpI6oe4IFo95CnMG9ItT-35" target="YpI6oe4IFo95CnMG9ItT-38" edge="1">
          <mxGeometry width="50" height="50" relative="1" as="geometry">
            <mxPoint x="783" y="780" as="sourcePoint" />
            <mxPoint x="740" y="876" as="targetPoint" />
          </mxGeometry>
        </mxCell>
        <mxCell id="YpI6oe4IFo95CnMG9ItT-96" value="" style="endArrow=classic;startArrow=classic;html=1;rounded=0;entryX=0.5;entryY=1;entryDx=0;entryDy=0;exitX=0.5;exitY=0;exitDx=0;exitDy=0;" parent="1" source="YpI6oe4IFo95CnMG9ItT-44" target="YpI6oe4IFo95CnMG9ItT-26" edge="1">
          <mxGeometry width="50" height="50" relative="1" as="geometry">
            <mxPoint x="400" y="1000" as="sourcePoint" />
            <mxPoint x="450" y="950" as="targetPoint" />
          </mxGeometry>
        </mxCell>
        <mxCell id="YpI6oe4IFo95CnMG9ItT-97" value="Data" style="text;html=1;strokeColor=none;fillColor=none;align=center;verticalAlign=middle;whiteSpace=wrap;rounded=0;" parent="1" vertex="1">
          <mxGeometry x="378.5" y="980" width="60" height="30" as="geometry" />
        </mxCell>
        <mxCell id="YpI6oe4IFo95CnMG9ItT-100" value="Output &lt;br&gt;(Metrics, Reports etc)" style="text;html=1;strokeColor=none;fillColor=none;align=center;verticalAlign=middle;whiteSpace=wrap;rounded=0;" parent="1" vertex="1">
          <mxGeometry x="550" y="1120" width="128" height="30" as="geometry" />
        </mxCell>
        <mxCell id="YpI6oe4IFo95CnMG9ItT-102" value="&lt;font color=&quot;#7f00ff&quot;&gt;Authentication&lt;br&gt;Authorization&lt;br&gt;Caching&lt;br&gt;Transformation&lt;br&gt;Rate Limiting&lt;br&gt;Reverse Proxy&lt;br&gt;Monitoring&lt;br&gt;Logging&lt;br&gt;Serverless Functions&lt;/font&gt;" style="text;html=1;strokeColor=none;fillColor=none;align=left;verticalAlign=middle;whiteSpace=wrap;rounded=0;" parent="1" vertex="1">
          <mxGeometry x="538" y="316" width="142" height="140" as="geometry" />
        </mxCell>
        <mxCell id="YpI6oe4IFo95CnMG9ItT-103" value="Video Processing Service" style="rounded=0;whiteSpace=wrap;html=1;fillColor=#dae8fc;strokeColor=#6c8ebf;" parent="1" vertex="1">
          <mxGeometry x="740" y="720" width="93" height="40" as="geometry" />
        </mxCell>
        <mxCell id="YpI6oe4IFo95CnMG9ItT-104" value="Worker" style="whiteSpace=wrap;html=1;aspect=fixed;fillColor=#dae8fc;strokeColor=#6c8ebf;" parent="1" vertex="1">
          <mxGeometry x="701" y="801" width="50" height="50" as="geometry" />
        </mxCell>
        <mxCell id="YpI6oe4IFo95CnMG9ItT-105" value="Worker" style="whiteSpace=wrap;html=1;aspect=fixed;fillColor=#dae8fc;strokeColor=#6c8ebf;" parent="1" vertex="1">
          <mxGeometry x="761" y="801" width="50" height="50" as="geometry" />
        </mxCell>
        <mxCell id="iRlKEebmr21ZPYE23wWA-11" style="edgeStyle=orthogonalEdgeStyle;rounded=0;orthogonalLoop=1;jettySize=auto;html=1;entryX=0;entryY=0.5;entryDx=0;entryDy=0;" edge="1" parent="1" source="iRlKEebmr21ZPYE23wWA-3" target="iRlKEebmr21ZPYE23wWA-4">
          <mxGeometry relative="1" as="geometry" />
        </mxCell>
        <mxCell id="iRlKEebmr21ZPYE23wWA-3" value="Requests" style="text;html=1;strokeColor=none;fillColor=none;align=center;verticalAlign=middle;whiteSpace=wrap;rounded=0;" vertex="1" parent="1">
          <mxGeometry x="-60" y="1700" width="60" height="30" as="geometry" />
        </mxCell>
        <mxCell id="iRlKEebmr21ZPYE23wWA-12" style="edgeStyle=orthogonalEdgeStyle;rounded=0;orthogonalLoop=1;jettySize=auto;html=1;exitX=1;exitY=0.5;exitDx=0;exitDy=0;" edge="1" parent="1" source="iRlKEebmr21ZPYE23wWA-4" target="iRlKEebmr21ZPYE23wWA-6">
          <mxGeometry relative="1" as="geometry" />
        </mxCell>
        <mxCell id="iRlKEebmr21ZPYE23wWA-4" value="frontend" style="rounded=0;whiteSpace=wrap;html=1;fillColor=#dae8fc;strokeColor=#6c8ebf;" vertex="1" parent="1">
          <mxGeometry x="43" y="1635" width="100" height="160" as="geometry" />
        </mxCell>
        <mxCell id="iRlKEebmr21ZPYE23wWA-5" value="backend" style="rounded=0;whiteSpace=wrap;html=1;fillColor=#d5e8d4;strokeColor=#82b366;" vertex="1" parent="1">
          <mxGeometry x="241" y="1630" width="100" height="160" as="geometry" />
        </mxCell>
        <mxCell id="iRlKEebmr21ZPYE23wWA-6" value="&lt;font style=&quot;font-size: 8px;&quot;&gt;Interface&lt;/font&gt;" style="rounded=0;whiteSpace=wrap;html=1;" vertex="1" parent="1">
          <mxGeometry x="201" y="1700" width="40" height="30" as="geometry" />
        </mxCell>
        <mxCell id="iRlKEebmr21ZPYE23wWA-7" value="DB" style="shape=cylinder3;whiteSpace=wrap;html=1;boundedLbl=1;backgroundOutline=1;size=15;fillColor=#0050ef;fontColor=#ffffff;strokeColor=#001DBC;" vertex="1" parent="1">
          <mxGeometry x="430" y="1647.5" width="108" height="125" as="geometry" />
        </mxCell>
        <mxCell id="iRlKEebmr21ZPYE23wWA-10" value="Distributed ID Service" style="ellipse;whiteSpace=wrap;html=1;fillColor=#f5f5f5;strokeColor=#666666;fontColor=#333333;" vertex="1" parent="1">
          <mxGeometry x="231" y="1830" width="120" height="60" as="geometry" />
        </mxCell>
        <mxCell id="iRlKEebmr21ZPYE23wWA-13" style="edgeStyle=orthogonalEdgeStyle;rounded=0;orthogonalLoop=1;jettySize=auto;html=1;entryX=0;entryY=0.5;entryDx=0;entryDy=0;entryPerimeter=0;" edge="1" parent="1" source="iRlKEebmr21ZPYE23wWA-5" target="iRlKEebmr21ZPYE23wWA-7">
          <mxGeometry relative="1" as="geometry" />
        </mxCell>
        <mxCell id="iRlKEebmr21ZPYE23wWA-14" value="INSERT INTO order(&lt;font color=&quot;#ea6b66&quot;&gt;order_id&lt;/font&gt;, &lt;font color=&quot;#67ab9f&quot;&gt;name&lt;/font&gt;, &lt;font color=&quot;#67ab9f&quot;&gt;price&lt;/font&gt;)&lt;br&gt;values(&lt;font color=&quot;#ea6b66&quot;&gt;1001004&lt;/font&gt;, &lt;font color=&quot;#67ab9f&quot;&gt;ning&lt;/font&gt;, &lt;font color=&quot;#67ab9f&quot;&gt;price=1000&lt;/font&gt;)" style="ellipse;whiteSpace=wrap;html=1;fillColor=#d5e8d4;strokeColor=#82b366;" vertex="1" parent="1">
          <mxGeometry x="360.5" y="1530" width="246" height="50" as="geometry" />
        </mxCell>
        <mxCell id="iRlKEebmr21ZPYE23wWA-15" value="order" style="swimlane;fontStyle=0;childLayout=stackLayout;horizontal=1;startSize=30;horizontalStack=0;resizeParent=1;resizeParentMax=0;resizeLast=0;collapsible=1;marginBottom=0;whiteSpace=wrap;html=1;fillColor=#f8cecc;strokeColor=#b85450;" vertex="1" parent="1">
          <mxGeometry x="550" y="1640" width="140" height="150" as="geometry">
            <mxRectangle x="572" y="1647.5" width="70" height="30" as="alternateBounds" />
          </mxGeometry>
        </mxCell>
        <mxCell id="iRlKEebmr21ZPYE23wWA-16" value="order_id&amp;nbsp; &amp;nbsp;name&amp;nbsp; &amp;nbsp;price" style="text;strokeColor=#d79b00;fillColor=#ffe6cc;align=left;verticalAlign=middle;spacingLeft=4;spacingRight=4;overflow=hidden;points=[[0,0.5],[1,0.5]];portConstraint=eastwest;rotatable=0;whiteSpace=wrap;html=1;" vertex="1" parent="iRlKEebmr21ZPYE23wWA-15">
          <mxGeometry y="30" width="140" height="30" as="geometry" />
        </mxCell>
        <mxCell id="iRlKEebmr21ZPYE23wWA-17" value="1001001&amp;nbsp; &amp;nbsp; joy&amp;nbsp; &amp;nbsp; &amp;nbsp; 3000" style="text;strokeColor=none;fillColor=none;align=left;verticalAlign=middle;spacingLeft=4;spacingRight=4;overflow=hidden;points=[[0,0.5],[1,0.5]];portConstraint=eastwest;rotatable=0;whiteSpace=wrap;html=1;" vertex="1" parent="iRlKEebmr21ZPYE23wWA-15">
          <mxGeometry y="60" width="140" height="30" as="geometry" />
        </mxCell>
        <mxCell id="iRlKEebmr21ZPYE23wWA-21" value="1001002&amp;nbsp; &amp;nbsp; isa&amp;nbsp; &amp;nbsp; &amp;nbsp; 3000" style="text;strokeColor=none;fillColor=none;align=left;verticalAlign=middle;spacingLeft=4;spacingRight=4;overflow=hidden;points=[[0,0.5],[1,0.5]];portConstraint=eastwest;rotatable=0;whiteSpace=wrap;html=1;" vertex="1" parent="iRlKEebmr21ZPYE23wWA-15">
          <mxGeometry y="90" width="140" height="30" as="geometry" />
        </mxCell>
        <mxCell id="iRlKEebmr21ZPYE23wWA-22" value="1001003&amp;nbsp; &amp;nbsp; oli&amp;nbsp; &amp;nbsp; &amp;nbsp; &amp;nbsp; 500" style="text;strokeColor=none;fillColor=none;align=left;verticalAlign=middle;spacingLeft=4;spacingRight=4;overflow=hidden;points=[[0,0.5],[1,0.5]];portConstraint=eastwest;rotatable=0;whiteSpace=wrap;html=1;" vertex="1" parent="iRlKEebmr21ZPYE23wWA-15">
          <mxGeometry y="120" width="140" height="30" as="geometry" />
        </mxCell>
        <mxCell id="iRlKEebmr21ZPYE23wWA-23" value="" style="endArrow=classic;startArrow=classic;html=1;rounded=0;entryX=0.5;entryY=1;entryDx=0;entryDy=0;exitX=0.5;exitY=0;exitDx=0;exitDy=0;exitPerimeter=0;dashed=1;" edge="1" parent="1" source="iRlKEebmr21ZPYE23wWA-7" target="iRlKEebmr21ZPYE23wWA-14">
          <mxGeometry width="50" height="50" relative="1" as="geometry">
            <mxPoint x="300" y="1730" as="sourcePoint" />
            <mxPoint x="350" y="1680" as="targetPoint" />
          </mxGeometry>
        </mxCell>
        <mxCell id="iRlKEebmr21ZPYE23wWA-24" value="" style="endArrow=classic;html=1;rounded=0;exitX=0.39;exitY=1.013;exitDx=0;exitDy=0;exitPerimeter=0;" edge="1" parent="1" source="iRlKEebmr21ZPYE23wWA-5">
          <mxGeometry width="50" height="50" relative="1" as="geometry">
            <mxPoint x="300" y="1730" as="sourcePoint" />
            <mxPoint x="280" y="1830" as="targetPoint" />
          </mxGeometry>
        </mxCell>
        <mxCell id="iRlKEebmr21ZPYE23wWA-25" value="" style="endArrow=classic;html=1;rounded=0;entryX=0.59;entryY=1;entryDx=0;entryDy=0;entryPerimeter=0;" edge="1" parent="1" target="iRlKEebmr21ZPYE23wWA-5">
          <mxGeometry width="50" height="50" relative="1" as="geometry">
            <mxPoint x="300" y="1830" as="sourcePoint" />
            <mxPoint x="290" y="1840" as="targetPoint" />
          </mxGeometry>
        </mxCell>
        <mxCell id="iRlKEebmr21ZPYE23wWA-26" value="Get distributed ID" style="text;html=1;strokeColor=none;fillColor=none;align=center;verticalAlign=middle;whiteSpace=wrap;rounded=0;" vertex="1" parent="1">
          <mxGeometry x="196" y="1795" width="81" height="30" as="geometry" />
        </mxCell>
        <mxCell id="iRlKEebmr21ZPYE23wWA-27" value="Generate distributed ID = 1001004" style="text;html=1;strokeColor=none;fillColor=none;align=center;verticalAlign=middle;whiteSpace=wrap;rounded=0;" vertex="1" parent="1">
          <mxGeometry x="302" y="1795" width="118" height="30" as="geometry" />
        </mxCell>
        <mxCell id="iRlKEebmr21ZPYE23wWA-29" value="service生成数据库唯一主键" style="text;html=1;strokeColor=none;fillColor=none;align=left;verticalAlign=middle;whiteSpace=wrap;rounded=0;" vertex="1" parent="1">
          <mxGeometry x="-80" y="1490" width="170" height="30" as="geometry" />
        </mxCell>
        <mxCell id="iRlKEebmr21ZPYE23wWA-30" value="" style="rounded=0;whiteSpace=wrap;html=1;" vertex="1" parent="1">
          <mxGeometry x="-80" y="2100" width="670" height="340" as="geometry" />
        </mxCell>
        <mxCell id="iRlKEebmr21ZPYE23wWA-31" style="edgeStyle=orthogonalEdgeStyle;rounded=0;orthogonalLoop=1;jettySize=auto;html=1;entryX=0;entryY=0.5;entryDx=0;entryDy=0;" edge="1" parent="1" source="iRlKEebmr21ZPYE23wWA-32">
          <mxGeometry relative="1" as="geometry">
            <mxPoint x="51" y="2310" as="targetPoint" />
          </mxGeometry>
        </mxCell>
        <mxCell id="iRlKEebmr21ZPYE23wWA-32" value="Requests" style="text;html=1;strokeColor=none;fillColor=none;align=center;verticalAlign=middle;whiteSpace=wrap;rounded=0;" vertex="1" parent="1">
          <mxGeometry x="-52" y="2295" width="60" height="30" as="geometry" />
        </mxCell>
        <mxCell id="iRlKEebmr21ZPYE23wWA-35" value="backend" style="rounded=0;whiteSpace=wrap;html=1;fillColor=#d5e8d4;strokeColor=#82b366;" vertex="1" parent="1">
          <mxGeometry x="52" y="2230" width="100" height="160" as="geometry" />
        </mxCell>
        <mxCell id="iRlKEebmr21ZPYE23wWA-37" value="DB" style="shape=cylinder3;whiteSpace=wrap;html=1;boundedLbl=1;backgroundOutline=1;size=15;fillColor=#0050ef;fontColor=#ffffff;strokeColor=#001DBC;" vertex="1" parent="1">
          <mxGeometry x="241" y="2247.5" width="108" height="125" as="geometry" />
        </mxCell>
        <mxCell id="iRlKEebmr21ZPYE23wWA-39" style="edgeStyle=orthogonalEdgeStyle;rounded=0;orthogonalLoop=1;jettySize=auto;html=1;entryX=0;entryY=0.5;entryDx=0;entryDy=0;entryPerimeter=0;" edge="1" parent="1" source="iRlKEebmr21ZPYE23wWA-35" target="iRlKEebmr21ZPYE23wWA-37">
          <mxGeometry relative="1" as="geometry" />
        </mxCell>
        <mxCell id="iRlKEebmr21ZPYE23wWA-40" value="UPDATE order SET &lt;font color=&quot;#67ab9f&quot;&gt;price = price + 50, version = version + 1&lt;/font&gt;&amp;nbsp;WHERE &lt;font color=&quot;#67ab9f&quot;&gt;id = 3 &lt;/font&gt;&lt;font color=&quot;#330000&quot;&gt;AND&lt;/font&gt;&amp;nbsp;&lt;font color=&quot;#ea6b66&quot;&gt;version =5&lt;/font&gt;" style="ellipse;whiteSpace=wrap;html=1;fillColor=#d5e8d4;strokeColor=#82b366;" vertex="1" parent="1">
          <mxGeometry x="171.5" y="2120" width="246" height="60" as="geometry" />
        </mxCell>
        <mxCell id="iRlKEebmr21ZPYE23wWA-41" value="order" style="swimlane;fontStyle=0;childLayout=stackLayout;horizontal=1;startSize=30;horizontalStack=0;resizeParent=1;resizeParentMax=0;resizeLast=0;collapsible=1;marginBottom=0;whiteSpace=wrap;html=1;fillColor=#f8cecc;strokeColor=#b85450;" vertex="1" parent="1">
          <mxGeometry x="361" y="2240" width="189" height="150" as="geometry">
            <mxRectangle x="572" y="1647.5" width="70" height="30" as="alternateBounds" />
          </mxGeometry>
        </mxCell>
        <mxCell id="iRlKEebmr21ZPYE23wWA-42" value="order_id&amp;nbsp; &amp;nbsp;name&amp;nbsp; &amp;nbsp;price&amp;nbsp; &amp;nbsp; &amp;nbsp;version" style="text;strokeColor=#d79b00;fillColor=#ffe6cc;align=left;verticalAlign=middle;spacingLeft=4;spacingRight=4;overflow=hidden;points=[[0,0.5],[1,0.5]];portConstraint=eastwest;rotatable=0;whiteSpace=wrap;html=1;" vertex="1" parent="iRlKEebmr21ZPYE23wWA-41">
          <mxGeometry y="30" width="189" height="30" as="geometry" />
        </mxCell>
        <mxCell id="iRlKEebmr21ZPYE23wWA-43" value="&amp;nbsp; &amp;nbsp; &amp;nbsp;1&amp;nbsp; &amp;nbsp; &amp;nbsp; &amp;nbsp; &amp;nbsp; &amp;nbsp;joy&amp;nbsp; &amp;nbsp; &amp;nbsp; 3000&amp;nbsp; &amp;nbsp; &amp;nbsp; &amp;nbsp;10" style="text;strokeColor=none;fillColor=none;align=left;verticalAlign=middle;spacingLeft=4;spacingRight=4;overflow=hidden;points=[[0,0.5],[1,0.5]];portConstraint=eastwest;rotatable=0;whiteSpace=wrap;html=1;" vertex="1" parent="iRlKEebmr21ZPYE23wWA-41">
          <mxGeometry y="60" width="189" height="30" as="geometry" />
        </mxCell>
        <mxCell id="iRlKEebmr21ZPYE23wWA-44" value="&amp;nbsp; &amp;nbsp; &amp;nbsp;2&amp;nbsp; &amp;nbsp; &amp;nbsp; &amp;nbsp; &amp;nbsp; &amp;nbsp;isa&amp;nbsp; &amp;nbsp; &amp;nbsp; 3000&amp;nbsp; &amp;nbsp; &amp;nbsp; &amp;nbsp;21" style="text;strokeColor=none;fillColor=none;align=left;verticalAlign=middle;spacingLeft=4;spacingRight=4;overflow=hidden;points=[[0,0.5],[1,0.5]];portConstraint=eastwest;rotatable=0;whiteSpace=wrap;html=1;" vertex="1" parent="iRlKEebmr21ZPYE23wWA-41">
          <mxGeometry y="90" width="189" height="30" as="geometry" />
        </mxCell>
        <mxCell id="iRlKEebmr21ZPYE23wWA-45" value="&amp;nbsp; &amp;nbsp; &amp;nbsp;3&amp;nbsp; &amp;nbsp; &amp;nbsp; &amp;nbsp; &amp;nbsp; &amp;nbsp;oli&amp;nbsp; &amp;nbsp; &amp;nbsp; &amp;nbsp; 500&amp;nbsp; &amp;nbsp; &amp;nbsp; &amp;nbsp; 5" style="text;strokeColor=none;fillColor=none;align=left;verticalAlign=middle;spacingLeft=4;spacingRight=4;overflow=hidden;points=[[0,0.5],[1,0.5]];portConstraint=eastwest;rotatable=0;whiteSpace=wrap;html=1;" vertex="1" parent="iRlKEebmr21ZPYE23wWA-41">
          <mxGeometry y="120" width="189" height="30" as="geometry" />
        </mxCell>
        <mxCell id="iRlKEebmr21ZPYE23wWA-46" value="" style="endArrow=classic;startArrow=classic;html=1;rounded=0;entryX=0.5;entryY=1;entryDx=0;entryDy=0;exitX=0.5;exitY=0;exitDx=0;exitDy=0;exitPerimeter=0;dashed=1;" edge="1" parent="1" source="iRlKEebmr21ZPYE23wWA-37" target="iRlKEebmr21ZPYE23wWA-40">
          <mxGeometry width="50" height="50" relative="1" as="geometry">
            <mxPoint x="111" y="2330" as="sourcePoint" />
            <mxPoint x="161" y="2280" as="targetPoint" />
          </mxGeometry>
        </mxCell>
        <mxCell id="iRlKEebmr21ZPYE23wWA-51" value="利用数据库乐观锁" style="text;html=1;strokeColor=none;fillColor=none;align=left;verticalAlign=middle;whiteSpace=wrap;rounded=0;" vertex="1" parent="1">
          <mxGeometry x="-80" y="2070" width="170" height="30" as="geometry" />
        </mxCell>
        <mxCell id="iRlKEebmr21ZPYE23wWA-53" value="execute" style="text;html=1;strokeColor=none;fillColor=none;align=center;verticalAlign=middle;whiteSpace=wrap;rounded=0;" vertex="1" parent="1">
          <mxGeometry x="425" y="1600" width="60" height="30" as="geometry" />
        </mxCell>
        <mxCell id="iRlKEebmr21ZPYE23wWA-54" value="execute" style="text;html=1;strokeColor=none;fillColor=none;align=center;verticalAlign=middle;whiteSpace=wrap;rounded=0;" vertex="1" parent="1">
          <mxGeometry x="231" y="2200" width="60" height="30" as="geometry" />
        </mxCell>
        <mxCell id="iRlKEebmr21ZPYE23wWA-55" value="frontend" style="rounded=0;whiteSpace=wrap;html=1;fillColor=#dae8fc;strokeColor=#6c8ebf;" vertex="1" parent="1">
          <mxGeometry x="-55" y="2649" width="100" height="160" as="geometry" />
        </mxCell>
        <mxCell id="iRlKEebmr21ZPYE23wWA-57" value="backend" style="rounded=0;whiteSpace=wrap;html=1;fillColor=#d5e8d4;strokeColor=#82b366;" vertex="1" parent="1">
          <mxGeometry x="187" y="2649" width="100" height="160" as="geometry" />
        </mxCell>
        <mxCell id="iRlKEebmr21ZPYE23wWA-58" value="token interface" style="rounded=0;whiteSpace=wrap;html=1;fillColor=#60a917;strokeColor=#2D7600;fontColor=#ffffff;" vertex="1" parent="1">
          <mxGeometry x="134.5" y="2649" width="52.5" height="80" as="geometry" />
        </mxCell>
        <mxCell id="iRlKEebmr21ZPYE23wWA-59" value="" style="endArrow=classic;html=1;rounded=0;entryX=0;entryY=0.25;entryDx=0;entryDy=0;" edge="1" parent="1" target="iRlKEebmr21ZPYE23wWA-58">
          <mxGeometry width="50" height="50" relative="1" as="geometry">
            <mxPoint x="46" y="2669" as="sourcePoint" />
            <mxPoint x="366" y="2559" as="targetPoint" />
          </mxGeometry>
        </mxCell>
        <mxCell id="iRlKEebmr21ZPYE23wWA-60" value="" style="endArrow=classic;html=1;rounded=0;exitX=0;exitY=0.5;exitDx=0;exitDy=0;" edge="1" parent="1">
          <mxGeometry width="50" height="50" relative="1" as="geometry">
            <mxPoint x="133.5" y="2689" as="sourcePoint" />
            <mxPoint x="45" y="2689" as="targetPoint" />
          </mxGeometry>
        </mxCell>
        <mxCell id="iRlKEebmr21ZPYE23wWA-61" value="Get token" style="text;html=1;strokeColor=none;fillColor=none;align=center;verticalAlign=middle;whiteSpace=wrap;rounded=0;" vertex="1" parent="1">
          <mxGeometry x="57" y="2640" width="60" height="30" as="geometry" />
        </mxCell>
        <mxCell id="iRlKEebmr21ZPYE23wWA-62" value="Return token string" style="text;html=1;strokeColor=none;fillColor=none;align=center;verticalAlign=middle;whiteSpace=wrap;rounded=0;" vertex="1" parent="1">
          <mxGeometry x="59" y="2689" width="68" height="30" as="geometry" />
        </mxCell>
        <mxCell id="iRlKEebmr21ZPYE23wWA-63" value="redis" style="rounded=0;whiteSpace=wrap;html=1;fillColor=#d80073;strokeColor=#A50040;fontColor=#ffffff;" vertex="1" parent="1">
          <mxGeometry x="431.5" y="2649" width="100" height="160" as="geometry" />
        </mxCell>
        <mxCell id="iRlKEebmr21ZPYE23wWA-64" value="" style="image;sketch=0;aspect=fixed;html=1;points=[];align=center;fontSize=12;image=img/lib/mscae/Cache_Redis_Product.svg;" vertex="1" parent="1">
          <mxGeometry x="533.5" y="2708" width="50" height="42" as="geometry" />
        </mxCell>
        <mxCell id="iRlKEebmr21ZPYE23wWA-65" value="" style="endArrow=classic;html=1;rounded=0;" edge="1" parent="1">
          <mxGeometry width="50" height="50" relative="1" as="geometry">
            <mxPoint x="42.5" y="2759" as="sourcePoint" />
            <mxPoint x="186" y="2759" as="targetPoint" />
          </mxGeometry>
        </mxCell>
        <mxCell id="iRlKEebmr21ZPYE23wWA-66" value="" style="endArrow=classic;html=1;rounded=0;entryX=1.01;entryY=0.875;entryDx=0;entryDy=0;entryPerimeter=0;" edge="1" parent="1">
          <mxGeometry width="50" height="50" relative="1" as="geometry">
            <mxPoint x="185" y="2780" as="sourcePoint" />
            <mxPoint x="45" y="2780" as="targetPoint" />
          </mxGeometry>
        </mxCell>
        <mxCell id="iRlKEebmr21ZPYE23wWA-67" value="" style="endArrow=classic;html=1;rounded=0;" edge="1" parent="1">
          <mxGeometry width="50" height="50" relative="1" as="geometry">
            <mxPoint x="289" y="2679" as="sourcePoint" />
            <mxPoint x="432.5" y="2679" as="targetPoint" />
          </mxGeometry>
        </mxCell>
        <mxCell id="iRlKEebmr21ZPYE23wWA-68" value="" style="endArrow=classic;html=1;rounded=0;entryX=1.01;entryY=0.875;entryDx=0;entryDy=0;entryPerimeter=0;" edge="1" parent="1">
          <mxGeometry width="50" height="50" relative="1" as="geometry">
            <mxPoint x="428" y="2779" as="sourcePoint" />
            <mxPoint x="288" y="2779" as="targetPoint" />
          </mxGeometry>
        </mxCell>
        <mxCell id="iRlKEebmr21ZPYE23wWA-69" value="Header with token for logics" style="text;html=1;strokeColor=none;fillColor=none;align=center;verticalAlign=middle;whiteSpace=wrap;rounded=0;" vertex="1" parent="1">
          <mxGeometry x="49" y="2729" width="127" height="30" as="geometry" />
        </mxCell>
        <mxCell id="iRlKEebmr21ZPYE23wWA-70" value="Response" style="text;html=1;strokeColor=none;fillColor=none;align=center;verticalAlign=middle;whiteSpace=wrap;rounded=0;" vertex="1" parent="1">
          <mxGeometry x="54.5" y="2779" width="127" height="30" as="geometry" />
        </mxCell>
        <mxCell id="iRlKEebmr21ZPYE23wWA-71" value="" style="endArrow=classic;html=1;rounded=0;" edge="1" parent="1">
          <mxGeometry width="50" height="50" relative="1" as="geometry">
            <mxPoint x="287" y="2759" as="sourcePoint" />
            <mxPoint x="430.5" y="2759" as="targetPoint" />
          </mxGeometry>
        </mxCell>
        <mxCell id="iRlKEebmr21ZPYE23wWA-72" value="Save token" style="text;html=1;strokeColor=none;fillColor=none;align=center;verticalAlign=middle;whiteSpace=wrap;rounded=0;" vertex="1" parent="1">
          <mxGeometry x="296" y="2649" width="127" height="30" as="geometry" />
        </mxCell>
        <mxCell id="iRlKEebmr21ZPYE23wWA-73" value="Check existance of token, delete if yes" style="text;html=1;strokeColor=none;fillColor=none;align=center;verticalAlign=middle;whiteSpace=wrap;rounded=0;" vertex="1" parent="1">
          <mxGeometry x="293" y="2729" width="127" height="30" as="geometry" />
        </mxCell>
        <mxCell id="iRlKEebmr21ZPYE23wWA-74" value="Return execution result" style="text;html=1;strokeColor=none;fillColor=none;align=center;verticalAlign=middle;whiteSpace=wrap;rounded=0;" vertex="1" parent="1">
          <mxGeometry x="296" y="2779" width="127" height="30" as="geometry" />
        </mxCell>
        <mxCell id="iRlKEebmr21ZPYE23wWA-75" value="&lt;font color=&quot;#ff3333&quot;&gt;8&lt;/font&gt;" style="ellipse;whiteSpace=wrap;html=1;aspect=fixed;" vertex="1" parent="1">
          <mxGeometry x="68" y="2784" width="20" height="20" as="geometry" />
        </mxCell>
        <mxCell id="iRlKEebmr21ZPYE23wWA-76" value="&lt;font color=&quot;#ff3333&quot;&gt;7&lt;/font&gt;" style="ellipse;whiteSpace=wrap;html=1;aspect=fixed;" vertex="1" parent="1">
          <mxGeometry x="298.25" y="2799" width="20" height="20" as="geometry" />
        </mxCell>
        <mxCell id="iRlKEebmr21ZPYE23wWA-77" value="&lt;font color=&quot;#ff3333&quot;&gt;6&lt;/font&gt;" style="ellipse;whiteSpace=wrap;html=1;aspect=fixed;" vertex="1" parent="1">
          <mxGeometry x="409" y="2734" width="20" height="20" as="geometry" />
        </mxCell>
        <mxCell id="iRlKEebmr21ZPYE23wWA-78" value="&lt;font color=&quot;#ff3333&quot;&gt;5&lt;/font&gt;" style="ellipse;whiteSpace=wrap;html=1;aspect=fixed;" vertex="1" parent="1">
          <mxGeometry x="133" y="2739" width="20" height="20" as="geometry" />
        </mxCell>
        <mxCell id="iRlKEebmr21ZPYE23wWA-79" value="&lt;font color=&quot;#ff3333&quot;&gt;4&lt;/font&gt;" style="ellipse;whiteSpace=wrap;html=1;aspect=fixed;" vertex="1" parent="1">
          <mxGeometry x="113" y="2689" width="20" height="20" as="geometry" />
        </mxCell>
        <mxCell id="iRlKEebmr21ZPYE23wWA-80" value="&lt;font color=&quot;#ff3333&quot;&gt;3&lt;/font&gt;" style="ellipse;whiteSpace=wrap;html=1;aspect=fixed;" vertex="1" parent="1">
          <mxGeometry x="346" y="2634" width="20" height="20" as="geometry" />
        </mxCell>
        <mxCell id="iRlKEebmr21ZPYE23wWA-81" value="&lt;font color=&quot;#ff3333&quot;&gt;2&lt;/font&gt;" style="ellipse;whiteSpace=wrap;html=1;aspect=fixed;" vertex="1" parent="1">
          <mxGeometry x="76" y="2628" width="20" height="20" as="geometry" />
        </mxCell>
        <mxCell id="iRlKEebmr21ZPYE23wWA-82" value="&lt;font color=&quot;#ff3333&quot;&gt;1&lt;/font&gt;" style="ellipse;whiteSpace=wrap;html=1;aspect=fixed;" vertex="1" parent="1">
          <mxGeometry x="148" y="2654" width="20" height="20" as="geometry" />
        </mxCell>
        <mxCell id="iRlKEebmr21ZPYE23wWA-90" value="" style="endArrow=classic;startArrow=classic;html=1;rounded=0;entryX=0.5;entryY=1;entryDx=0;entryDy=0;exitX=0.5;exitY=0;exitDx=0;exitDy=0;exitPerimeter=0;dashed=1;" edge="1" parent="1">
          <mxGeometry width="50" height="50" relative="1" as="geometry">
            <mxPoint x="365" y="2867" as="sourcePoint" />
            <mxPoint x="365" y="2799" as="targetPoint" />
          </mxGeometry>
        </mxCell>
        <mxCell id="iRlKEebmr21ZPYE23wWA-91" value="&lt;div style=&quot;text-align: left;&quot;&gt;&lt;span style=&quot;background-color: initial;&quot;&gt;- &lt;font color=&quot;#ea6b66&quot;&gt;&lt;b&gt;执行成功&lt;/b&gt;&lt;/font&gt;，说明是第一次调用接口，允许执行业务逻辑&lt;/span&gt;&lt;/div&gt;&lt;div style=&quot;text-align: left;&quot;&gt;&lt;span style=&quot;background-color: initial;&quot;&gt;- &lt;b&gt;&lt;font color=&quot;#ea6b66&quot;&gt;执行失败&lt;/font&gt;&lt;/b&gt;，说明Redis中不存在该token，为重复调用&lt;/span&gt;&lt;/div&gt;" style="rounded=1;whiteSpace=wrap;html=1;" vertex="1" parent="1">
          <mxGeometry x="186" y="2869" width="345.5" height="60" as="geometry" />
        </mxCell>
        <mxCell id="iRlKEebmr21ZPYE23wWA-93" value="防重token令牌" style="text;html=1;strokeColor=none;fillColor=none;align=left;verticalAlign=middle;whiteSpace=wrap;rounded=0;" vertex="1" parent="1">
          <mxGeometry x="-82" y="2569" width="170" height="30" as="geometry" />
        </mxCell>
      </root>
    </mxGraphModel>
  </diagram>
</mxfile>
